<svg xmlns="http://www.w3.org/2000/svg" xmlns:xlink="http://www.w3.org/1999/xlink" width="775" zoomAndPan="magnify" viewBox="0 0 581.25 226.499993" height="302" preserveAspectRatio="xMidYMid meet" version="1.0"><defs><g/><clipPath id="35d5425fa7"><path d="M 408.722656 20.035156 L 521.378906 20.035156 L 521.378906 132.691406 L 408.722656 132.691406 Z M 408.722656 20.035156 " clip-rule="nonzero"/></clipPath><clipPath id="3356579666"><path d="M 411.714844 20.035156 L 518.390625 20.035156 C 520.042969 20.035156 521.378906 21.375 521.378906 23.023438 L 521.378906 129.703125 C 521.378906 131.351562 520.042969 132.691406 518.390625 132.691406 L 411.714844 132.691406 C 410.0625 132.691406 408.722656 131.351562 408.722656 129.703125 L 408.722656 23.023438 C 408.722656 21.375 410.0625 20.035156 411.714844 20.035156 Z M 411.714844 20.035156 " clip-rule="nonzero"/></clipPath><clipPath id="62d1c3cd29"><path d="M 0.722656 0.0351562 L 113.378906 0.0351562 L 113.378906 112.691406 L 0.722656 112.691406 Z M 0.722656 0.0351562 " clip-rule="nonzero"/></clipPath><clipPath id="899a922306"><path d="M 3.714844 0.0351562 L 110.390625 0.0351562 C 112.042969 0.0351562 113.378906 1.375 113.378906 3.023438 L 113.378906 109.703125 C 113.378906 111.351562 112.042969 112.691406 110.390625 112.691406 L 3.714844 112.691406 C 2.0625 112.691406 0.722656 111.351562 0.722656 109.703125 L 0.722656 3.023438 C 0.722656 1.375 2.0625 0.0351562 3.714844 0.0351562 Z M 3.714844 0.0351562 " clip-rule="nonzero"/></clipPath><clipPath id="e9344ece3b"><rect x="0" width="114" y="0" height="113"/></clipPath><clipPath id="7cf2425937"><path d="M 0.722656 14.980469 L 150.683594 14.980469 L 150.683594 132.332031 L 0.722656 132.332031 Z M 0.722656 14.980469 " clip-rule="nonzero"/></clipPath><clipPath id="103908ea28"><rect x="0" width="320" y="0" height="30"/></clipPath><clipPath id="c6659c3a3d"><path d="M 348.402344 64.582031 L 521.066406 64.582031 L 521.066406 132.601562 L 348.402344 132.601562 Z M 348.402344 64.582031 " clip-rule="nonzero"/></clipPath><clipPath id="d10543386f"><path d="M 0.707031 0.601562 L 173.066406 0.601562 L 173.066406 68.601562 L 0.707031 68.601562 Z M 0.707031 0.601562 " clip-rule="nonzero"/></clipPath><clipPath id="e9e99d3079"><path d="M 4 0.582031 L 28 0.582031 L 28 2 L 4 2 Z M 4 0.582031 " clip-rule="nonzero"/></clipPath><clipPath id="6e47f9fd03"><path d="M 1.078125 0.601562 L 96.894531 0.601562 L 96.894531 68.601562 L 1.078125 68.601562 Z M 1.078125 0.601562 " clip-rule="nonzero"/></clipPath><clipPath id="6083a28f72"><path d="M 8.050781 0.601562 L 166.398438 0.601562 L 166.398438 68.601562 L 8.050781 68.601562 Z M 8.050781 0.601562 " clip-rule="nonzero"/></clipPath><clipPath id="fed70e7746"><rect x="0" width="174" y="0" height="69"/></clipPath><clipPath id="3edbedb020"><rect x="0" width="522" y="0" height="134"/></clipPath></defs><g transform="matrix(1, 0, 0, 1, 29, 46)"><g clip-path="url(#3edbedb020)"><g clip-path="url(#35d5425fa7)"><g clip-path="url(#3356579666)"><g transform="matrix(1, 0, 0, 1, 408, 20)"><g clip-path="url(#e9344ece3b)"><g clip-path="url(#62d1c3cd29)"><g clip-path="url(#899a922306)"><path fill="#ee6834" d="M 0.722656 0.0351562 L 113.378906 0.0351562 L 113.378906 112.691406 L 0.722656 112.691406 Z M 0.722656 0.0351562 " fill-opacity="1" fill-rule="nonzero"/></g></g></g></g></g></g><g clip-path="url(#7cf2425937)"><path fill="#ee6834" d="M 150.207031 14.980469 C 111.617188 38.210938 71.609375 74.863281 42.183594 132.683594 L 0.886719 132.683594 C 54.316406 40.40625 146.722656 16.660156 150.207031 14.980469 Z M 150.207031 14.980469 " fill-opacity="1" fill-rule="nonzero"/></g><g transform="matrix(1, 0, 0, 1, 85, 98)"><g clip-path="url(#103908ea28)"><g fill="#ffffff" fill-opacity="1"><g transform="translate(1.758009, 22.71775)"><g><path d="M 1.21875 -16.4375 L 1.21875 -18.421875 L 15.03125 -18.421875 L 15.03125 -16.4375 L 9.25 -16.4375 L 9.25 0 L 7.015625 0 L 7.015625 -16.4375 Z M 1.21875 -16.4375 "/></g></g></g><g fill="#ffffff" fill-opacity="1"><g transform="translate(30.08835, 22.71775)"><g><path d="M 2.234375 0 L 2.234375 -18.421875 L 8.453125 -18.421875 C 9.890625 -18.421875 11.070312 -18.175781 12 -17.6875 C 12.925781 -17.195312 13.609375 -16.523438 14.046875 -15.671875 C 14.492188 -14.828125 14.71875 -13.859375 14.71875 -12.765625 C 14.71875 -11.546875 14.4375 -10.484375 13.875 -9.578125 C 13.3125 -8.671875 12.441406 -8.015625 11.265625 -7.609375 L 15.4375 0 L 12.84375 0 L 8.953125 -7.203125 C 8.804688 -7.203125 8.648438 -7.203125 8.484375 -7.203125 L 4.46875 -7.203125 L 4.46875 0 Z M 4.46875 -9.203125 L 8.421875 -9.203125 C 9.890625 -9.203125 10.9375 -9.519531 11.5625 -10.15625 C 12.195312 -10.789062 12.515625 -11.660156 12.515625 -12.765625 C 12.515625 -13.878906 12.195312 -14.769531 11.5625 -15.4375 C 10.9375 -16.101562 9.875 -16.4375 8.375 -16.4375 L 4.46875 -16.4375 Z M 4.46875 -9.203125 "/></g></g></g><g fill="#ffffff" fill-opacity="1"><g transform="translate(58.346793, 22.71775)"><g><path d="M 2.984375 0 L 0.640625 0 L 7.40625 -18.421875 L 9.71875 -18.421875 L 16.484375 0 L 14.140625 0 L 12.28125 -5.21875 L 4.84375 -5.21875 Z M 5.546875 -7.203125 L 11.578125 -7.203125 L 8.640625 -15.5 L 8.484375 -15.5 Z M 5.546875 -7.203125 "/></g></g></g><g fill="#ffffff" fill-opacity="1"><g transform="translate(87.539842, 22.71775)"><g><path d="M 16.84375 -18.421875 L 16.84375 0 L 14.671875 0 L 4.640625 -14.46875 L 4.46875 -14.46875 L 4.46875 0 L 2.234375 0 L 2.234375 -18.421875 L 4.390625 -18.421875 L 14.46875 -3.921875 L 14.640625 -3.921875 L 14.640625 -18.421875 Z M 16.84375 -18.421875 "/></g></g></g><g fill="#ffffff" fill-opacity="1"><g transform="translate(118.673976, 22.71775)"><g><path d="M 12.296875 -13.8125 C 12.191406 -14.726562 11.753906 -15.4375 10.984375 -15.9375 C 10.222656 -16.4375 9.285156 -16.6875 8.171875 -16.6875 C 6.941406 -16.6875 5.953125 -16.394531 5.203125 -15.8125 C 4.460938 -15.238281 4.09375 -14.515625 4.09375 -13.640625 C 4.09375 -12.972656 4.296875 -12.4375 4.703125 -12.03125 C 5.109375 -11.632812 5.585938 -11.320312 6.140625 -11.09375 C 6.703125 -10.863281 7.207031 -10.691406 7.65625 -10.578125 L 9.53125 -10.078125 C 10.007812 -9.953125 10.546875 -9.773438 11.140625 -9.546875 C 11.734375 -9.328125 12.300781 -9.023438 12.84375 -8.640625 C 13.382812 -8.265625 13.832031 -7.78125 14.1875 -7.1875 C 14.539062 -6.59375 14.71875 -5.863281 14.71875 -5 C 14.71875 -4 14.457031 -3.097656 13.9375 -2.296875 C 13.414062 -1.492188 12.660156 -0.851562 11.671875 -0.375 C 10.679688 0.09375 9.476562 0.328125 8.0625 0.328125 C 6.082031 0.328125 4.507812 -0.140625 3.34375 -1.078125 C 2.175781 -2.015625 1.539062 -3.238281 1.4375 -4.75 L 3.734375 -4.75 C 3.796875 -4.050781 4.03125 -3.472656 4.4375 -3.015625 C 4.851562 -2.566406 5.378906 -2.234375 6.015625 -2.015625 C 6.648438 -1.796875 7.332031 -1.6875 8.0625 -1.6875 C 8.914062 -1.6875 9.679688 -1.828125 10.359375 -2.109375 C 11.035156 -2.390625 11.570312 -2.78125 11.96875 -3.28125 C 12.363281 -3.78125 12.5625 -4.363281 12.5625 -5.03125 C 12.5625 -5.644531 12.390625 -6.144531 12.046875 -6.53125 C 11.703125 -6.914062 11.25 -7.226562 10.6875 -7.46875 C 10.132812 -7.707031 9.535156 -7.914062 8.890625 -8.09375 L 6.625 -8.75 C 5.1875 -9.15625 4.046875 -9.742188 3.203125 -10.515625 C 2.359375 -11.285156 1.9375 -12.289062 1.9375 -13.53125 C 1.9375 -14.5625 2.21875 -15.460938 2.78125 -16.234375 C 3.34375 -17.003906 4.097656 -17.601562 5.046875 -18.03125 C 5.992188 -18.457031 7.054688 -18.671875 8.234375 -18.671875 C 9.421875 -18.671875 10.476562 -18.457031 11.40625 -18.03125 C 12.332031 -17.613281 13.066406 -17.035156 13.609375 -16.296875 C 14.148438 -15.566406 14.4375 -14.738281 14.46875 -13.8125 Z M 12.296875 -13.8125 "/></g></g></g><g fill="#ffffff" fill-opacity="1"><g transform="translate(146.896456, 22.71775)"><g><path d="M 2.234375 0 L 2.234375 -18.421875 L 8.453125 -18.421875 C 9.898438 -18.421875 11.082031 -18.160156 12 -17.640625 C 12.925781 -17.117188 13.609375 -16.414062 14.046875 -15.53125 C 14.492188 -14.65625 14.71875 -13.675781 14.71875 -12.59375 C 14.71875 -11.507812 14.492188 -10.519531 14.046875 -9.625 C 13.609375 -8.738281 12.929688 -8.035156 12.015625 -7.515625 C 11.097656 -6.992188 9.921875 -6.734375 8.484375 -6.734375 L 4.46875 -6.734375 L 4.46875 0 Z M 4.46875 -8.703125 L 8.421875 -8.703125 C 9.898438 -8.703125 10.953125 -9.070312 11.578125 -9.8125 C 12.203125 -10.5625 12.515625 -11.488281 12.515625 -12.59375 C 12.515625 -13.695312 12.195312 -14.613281 11.5625 -15.34375 C 10.9375 -16.070312 9.875 -16.4375 8.375 -16.4375 L 4.46875 -16.4375 Z M 4.46875 -8.703125 "/></g></g></g><g fill="#ffffff" fill-opacity="1"><g transform="translate(175.047063, 22.71775)"><g><path d="M 17.765625 -9.203125 C 17.765625 -7.265625 17.414062 -5.585938 16.71875 -4.171875 C 16.019531 -2.753906 15.054688 -1.660156 13.828125 -0.890625 C 12.609375 -0.128906 11.210938 0.25 9.640625 0.25 C 8.066406 0.25 6.664062 -0.128906 5.4375 -0.890625 C 4.21875 -1.660156 3.257812 -2.753906 2.5625 -4.171875 C 1.863281 -5.585938 1.515625 -7.265625 1.515625 -9.203125 C 1.515625 -11.148438 1.863281 -12.832031 2.5625 -14.25 C 3.257812 -15.664062 4.21875 -16.753906 5.4375 -17.515625 C 6.664062 -18.285156 8.066406 -18.671875 9.640625 -18.671875 C 11.210938 -18.671875 12.609375 -18.285156 13.828125 -17.515625 C 15.054688 -16.753906 16.019531 -15.664062 16.71875 -14.25 C 17.414062 -12.832031 17.765625 -11.148438 17.765625 -9.203125 Z M 15.609375 -9.203125 C 15.609375 -10.804688 15.34375 -12.15625 14.8125 -13.25 C 14.28125 -14.34375 13.5625 -15.171875 12.65625 -15.734375 C 11.757812 -16.296875 10.753906 -16.578125 9.640625 -16.578125 C 8.523438 -16.578125 7.515625 -16.296875 6.609375 -15.734375 C 5.710938 -15.171875 5 -14.34375 4.46875 -13.25 C 3.9375 -12.15625 3.671875 -10.804688 3.671875 -9.203125 C 3.671875 -7.609375 3.9375 -6.265625 4.46875 -5.171875 C 5 -4.078125 5.710938 -3.242188 6.609375 -2.671875 C 7.515625 -2.109375 8.523438 -1.828125 9.640625 -1.828125 C 10.753906 -1.828125 11.757812 -2.109375 12.65625 -2.671875 C 13.5625 -3.242188 14.28125 -4.078125 14.8125 -5.171875 C 15.34375 -6.265625 15.609375 -7.609375 15.609375 -9.203125 Z M 15.609375 -9.203125 "/></g></g></g><g fill="#ffffff" fill-opacity="1"><g transform="translate(206.396867, 22.71775)"><g><path d="M 2.234375 0 L 2.234375 -18.421875 L 8.453125 -18.421875 C 9.890625 -18.421875 11.070312 -18.175781 12 -17.6875 C 12.925781 -17.195312 13.609375 -16.523438 14.046875 -15.671875 C 14.492188 -14.828125 14.71875 -13.859375 14.71875 -12.765625 C 14.71875 -11.546875 14.4375 -10.484375 13.875 -9.578125 C 13.3125 -8.671875 12.441406 -8.015625 11.265625 -7.609375 L 15.4375 0 L 12.84375 0 L 8.953125 -7.203125 C 8.804688 -7.203125 8.648438 -7.203125 8.484375 -7.203125 L 4.46875 -7.203125 L 4.46875 0 Z M 4.46875 -9.203125 L 8.421875 -9.203125 C 9.890625 -9.203125 10.9375 -9.519531 11.5625 -10.15625 C 12.195312 -10.789062 12.515625 -11.660156 12.515625 -12.765625 C 12.515625 -13.878906 12.195312 -14.769531 11.5625 -15.4375 C 10.9375 -16.101562 9.875 -16.4375 8.375 -16.4375 L 4.46875 -16.4375 Z M 4.46875 -9.203125 "/></g></g></g><g fill="#ffffff" fill-opacity="1"><g transform="translate(234.655309, 22.71775)"><g><path d="M 1.21875 -16.4375 L 1.21875 -18.421875 L 15.03125 -18.421875 L 15.03125 -16.4375 L 9.25 -16.4375 L 9.25 0 L 7.015625 0 L 7.015625 -16.4375 Z M 1.21875 -16.4375 "/></g></g></g><g fill="#ffffff" fill-opacity="1"><g transform="translate(262.985651, 22.71775)"><g><path d="M 2.234375 0 L 2.234375 -18.421875 L 13.34375 -18.421875 L 13.34375 -16.4375 L 4.46875 -16.4375 L 4.46875 -10.21875 L 12.765625 -10.21875 L 12.765625 -8.234375 L 4.46875 -8.234375 L 4.46875 -1.984375 L 13.484375 -1.984375 L 13.484375 0 Z M 2.234375 0 "/></g></g></g><g fill="#ffffff" fill-opacity="1"><g transform="translate(290.201652, 22.71775)"><g><path d="M 12.296875 -13.8125 C 12.191406 -14.726562 11.753906 -15.4375 10.984375 -15.9375 C 10.222656 -16.4375 9.285156 -16.6875 8.171875 -16.6875 C 6.941406 -16.6875 5.953125 -16.394531 5.203125 -15.8125 C 4.460938 -15.238281 4.09375 -14.515625 4.09375 -13.640625 C 4.09375 -12.972656 4.296875 -12.4375 4.703125 -12.03125 C 5.109375 -11.632812 5.585938 -11.320312 6.140625 -11.09375 C 6.703125 -10.863281 7.207031 -10.691406 7.65625 -10.578125 L 9.53125 -10.078125 C 10.007812 -9.953125 10.546875 -9.773438 11.140625 -9.546875 C 11.734375 -9.328125 12.300781 -9.023438 12.84375 -8.640625 C 13.382812 -8.265625 13.832031 -7.78125 14.1875 -7.1875 C 14.539062 -6.59375 14.71875 -5.863281 14.71875 -5 C 14.71875 -4 14.457031 -3.097656 13.9375 -2.296875 C 13.414062 -1.492188 12.660156 -0.851562 11.671875 -0.375 C 10.679688 0.09375 9.476562 0.328125 8.0625 0.328125 C 6.082031 0.328125 4.507812 -0.140625 3.34375 -1.078125 C 2.175781 -2.015625 1.539062 -3.238281 1.4375 -4.75 L 3.734375 -4.75 C 3.796875 -4.050781 4.03125 -3.472656 4.4375 -3.015625 C 4.851562 -2.566406 5.378906 -2.234375 6.015625 -2.015625 C 6.648438 -1.796875 7.332031 -1.6875 8.0625 -1.6875 C 8.914062 -1.6875 9.679688 -1.828125 10.359375 -2.109375 C 11.035156 -2.390625 11.570312 -2.78125 11.96875 -3.28125 C 12.363281 -3.78125 12.5625 -4.363281 12.5625 -5.03125 C 12.5625 -5.644531 12.390625 -6.144531 12.046875 -6.53125 C 11.703125 -6.914062 11.25 -7.226562 10.6875 -7.46875 C 10.132812 -7.707031 9.535156 -7.914062 8.890625 -8.09375 L 6.625 -8.75 C 5.1875 -9.15625 4.046875 -9.742188 3.203125 -10.515625 C 2.359375 -11.285156 1.9375 -12.289062 1.9375 -13.53125 C 1.9375 -14.5625 2.21875 -15.460938 2.78125 -16.234375 C 3.34375 -17.003906 4.097656 -17.601562 5.046875 -18.03125 C 5.992188 -18.457031 7.054688 -18.671875 8.234375 -18.671875 C 9.421875 -18.671875 10.476562 -18.457031 11.40625 -18.03125 C 12.332031 -17.613281 13.066406 -17.035156 13.609375 -16.296875 C 14.148438 -15.566406 14.4375 -14.738281 14.46875 -13.8125 Z M 12.296875 -13.8125 "/></g></g></g></g></g><g clip-path="url(#c6659c3a3d)"><g transform="matrix(1, 0, 0, 1, 348, 64)"><g clip-path="url(#fed70e7746)"><g clip-path="url(#d10543386f)"><path fill="#ee6834" d="M 81.082031 68.664062 C 95.828125 34.910156 68.9375 0.601562 0.398438 0.601562 C 3.425781 0.601562 6.449219 0.601562 9.476562 0.601562 C 105.746094 0.601562 160.378906 34.910156 173.371094 68.664062 L 81.082031 68.664062 " fill-opacity="1" fill-rule="nonzero"/></g><path fill="#ffffff" d="M 123.5625 56.050781 C 124.363281 59.164062 124.800781 62.308594 124.875 65.460938 C 126.414062 65.460938 127.957031 65.460938 129.5 65.460938 C 129.242188 62.308594 128.628906 59.164062 127.648438 56.050781 C 126.285156 56.050781 124.921875 56.050781 123.5625 56.050781 " fill-opacity="1" fill-rule="nonzero"/><path fill="#ffffff" d="M 118.371094 43.789062 C 120.148438 46.765625 121.566406 49.808594 122.617188 52.898438 C 123.921875 52.898438 125.226562 52.898438 126.53125 52.898438 C 125.3125 49.808594 123.730469 46.765625 121.789062 43.789062 C 120.648438 43.789062 119.507812 43.789062 118.371094 43.789062 " fill-opacity="1" fill-rule="nonzero"/><path fill="#ffffff" d="M 109.242188 32.296875 C 112.003906 35.027344 114.398438 37.871094 116.433594 40.792969 C 117.519531 40.792969 118.605469 40.792969 119.6875 40.792969 C 117.507812 37.871094 114.960938 35.027344 112.050781 32.296875 C 111.113281 32.296875 110.179688 32.296875 109.242188 32.296875 " fill-opacity="1" fill-rule="nonzero"/><path fill="#ffffff" d="M 96.183594 21.976562 C 99.921875 24.363281 103.300781 26.902344 106.3125 29.558594 C 107.199219 29.558594 108.085938 29.558594 108.972656 29.558594 C 105.828125 26.902344 102.316406 24.363281 98.441406 21.976562 C 97.691406 21.976562 96.9375 21.976562 96.183594 21.976562 " fill-opacity="1" fill-rule="nonzero"/><path fill="#ffffff" d="M 79.191406 13.238281 C 83.910156 15.183594 88.265625 17.3125 92.253906 19.597656 C 92.964844 19.597656 93.675781 19.597656 94.382812 19.597656 C 90.273438 17.3125 85.796875 15.183594 80.957031 13.238281 C 80.371094 13.238281 79.78125 13.238281 79.191406 13.238281 " fill-opacity="1" fill-rule="nonzero"/><path fill="#ffffff" d="M 58.265625 6.492188 C 63.960938 7.890625 69.296875 9.511719 74.269531 11.324219 C 74.820312 11.324219 75.371094 11.324219 75.921875 11.324219 C 70.847656 9.511719 65.40625 7.890625 59.601562 6.492188 C 59.15625 6.492188 58.710938 6.492188 58.265625 6.492188 " fill-opacity="1" fill-rule="nonzero"/><path fill="#ffffff" d="M 33.402344 2.144531 C 40.082031 2.890625 46.394531 3.902344 52.347656 5.148438 C 52.761719 5.148438 53.171875 5.148438 53.585938 5.148438 C 47.542969 3.902344 41.136719 2.890625 34.371094 2.144531 C 34.046875 2.144531 33.726562 2.144531 33.402344 2.144531 " fill-opacity="1" fill-rule="nonzero"/><g clip-path="url(#e9e99d3079)"><path fill="#ffffff" d="M 4.609375 0.601562 C 12.265625 0.601562 19.558594 0.902344 26.488281 1.472656 C 26.785156 1.472656 27.078125 1.472656 27.371094 1.472656 C 20.367188 0.902344 12.996094 0.601562 5.265625 0.601562 C 5.046875 0.601562 4.828125 0.601562 4.609375 0.601562 " fill-opacity="1" fill-rule="nonzero"/></g><g clip-path="url(#6e47f9fd03)"><path fill="#ffffff" d="M 88.164062 68.664062 C 100.78125 34.910156 71.761719 0.601562 1.097656 0.601562 C 1.316406 0.601562 1.53125 0.601562 1.75 0.601562 C 74.417969 0.601562 105.441406 34.910156 94.828125 68.664062 L 88.164062 68.664062 " fill-opacity="1" fill-rule="nonzero"/></g><g clip-path="url(#6083a28f72)"><path fill="#ffffff" d="M 159.539062 68.664062 C 150.707031 34.910156 100.230469 0.601562 8.113281 0.601562 C 8.332031 0.601562 8.550781 0.601562 8.769531 0.601562 C 102.890625 0.601562 155.367188 34.910156 166.203125 68.664062 L 159.539062 68.664062 " fill-opacity="1" fill-rule="nonzero"/></g></g></g></g><g fill="#ffffff" fill-opacity="1"><g transform="translate(117.240332, 89.885547)"><g><path d="M 3.3125 -56.078125 L 3.3125 -67.921875 L 59.09375 -67.921875 L 59.09375 -56.078125 L 38.3125 -56.078125 L 38.3125 0 L 24.109375 0 L 24.109375 -56.078125 Z M 3.3125 -56.078125 "/></g></g></g><g fill="#ffffff" fill-opacity="1"><g transform="translate(173.393913, 89.885547)"><g><path d="M 5.90625 0 L 5.90625 -67.921875 L 20.265625 -67.921875 L 20.265625 -39.890625 L 49.421875 -39.890625 L 49.421875 -67.921875 L 63.734375 -67.921875 L 63.734375 0 L 49.421875 0 L 49.421875 -28.0625 L 20.265625 -28.0625 L 20.265625 0 Z M 5.90625 0 "/></g></g></g><g fill="#ffffff" fill-opacity="1"><g transform="translate(236.81002, 89.885547)"><g><path d="M 20.265625 -67.921875 L 20.265625 0 L 5.90625 0 L 5.90625 -67.921875 Z M 20.265625 -67.921875 "/></g></g></g><g fill="#ffffff" fill-opacity="1"><g transform="translate(256.750435, 89.885547)"><g><path d="M 50.9375 -45.96875 C 50.03125 -49.144531 48.351562 -51.632812 45.90625 -53.4375 C 43.46875 -55.238281 40.40625 -56.140625 36.71875 -56.140625 C 31.519531 -56.140625 27.3125 -54.222656 24.09375 -50.390625 C 20.875 -46.554688 19.265625 -41.101562 19.265625 -34.03125 C 19.265625 -26.925781 20.84375 -21.4375 24 -17.5625 C 27.164062 -13.695312 31.445312 -11.765625 36.84375 -11.765625 C 41.625 -11.765625 45.378906 -13.007812 48.109375 -15.5 C 50.835938 -17.988281 52.242188 -21.332031 52.328125 -25.53125 L 37.734375 -25.53125 L 37.734375 -36.34375 L 66.15625 -36.34375 L 66.15625 -27.796875 C 66.15625 -21.847656 64.894531 -16.722656 62.375 -12.421875 C 59.851562 -8.117188 56.390625 -4.816406 51.984375 -2.515625 C 47.578125 -0.222656 42.507812 0.921875 36.78125 0.921875 C 30.414062 0.921875 24.820312 -0.484375 20 -3.296875 C 15.175781 -6.117188 11.421875 -10.132812 8.734375 -15.34375 C 6.046875 -20.550781 4.703125 -26.734375 4.703125 -33.890625 C 4.703125 -41.234375 6.109375 -47.515625 8.921875 -52.734375 C 11.734375 -57.953125 15.535156 -61.941406 20.328125 -64.703125 C 25.128906 -67.460938 30.515625 -68.84375 36.484375 -68.84375 C 41.609375 -68.84375 46.25 -67.867188 50.40625 -65.921875 C 54.5625 -63.984375 57.96875 -61.296875 60.625 -57.859375 C 63.28125 -54.421875 64.914062 -50.457031 65.53125 -45.96875 Z M 50.9375 -45.96875 "/></g></g></g><g fill="#ffffff" fill-opacity="1"><g transform="translate(321.526202, 89.885547)"><g><path d="M 17.609375 0 L 2.21875 0 L 25.671875 -67.921875 L 44.171875 -67.921875 L 67.59375 0 L 52.203125 0 L 47.15625 -15.484375 L 22.65625 -15.484375 Z M 26.296875 -26.703125 L 43.546875 -26.703125 L 35.1875 -52.40625 L 34.65625 -52.40625 Z M 26.296875 -26.703125 "/></g></g></g></g></g></svg>