<svg xmlns="http://www.w3.org/2000/svg" xmlns:xlink="http://www.w3.org/1999/xlink" width="775" zoomAndPan="magnify" viewBox="0 0 581.25 226.499993" height="302" preserveAspectRatio="xMidYMid meet" version="1.0"><defs><clipPath id="75036f8927"><path d="M 0.617188 0.34375 L 359.347656 0.34375 L 359.347656 173.238281 L 0.617188 173.238281 Z M 0.617188 0.34375 " clip-rule="nonzero"/></clipPath><clipPath id="ad2b60a768"><path d="M 173.585938 99.976562 L 359.347656 99.976562 L 359.347656 173.054688 L 173.585938 173.054688 Z M 173.585938 99.976562 " clip-rule="nonzero"/></clipPath><clipPath id="9a6e54dad4"><path d="M 0.585938 0.996094 L 186.109375 0.996094 L 186.109375 74.003906 L 0.585938 74.003906 Z M 0.585938 0.996094 " clip-rule="nonzero"/></clipPath><clipPath id="135cb3279d"><path d="M 5 0.976562 L 30 0.976562 L 30 2 L 5 2 Z M 5 0.976562 " clip-rule="nonzero"/></clipPath><clipPath id="ac06ee6eea"><path d="M 1.308594 0.996094 L 104.082031 0.996094 L 104.082031 74.003906 L 1.308594 74.003906 Z M 1.308594 0.996094 " clip-rule="nonzero"/></clipPath><clipPath id="04e9628abc"><path d="M 8.785156 0.996094 L 178.628906 0.996094 L 178.628906 74.003906 L 8.785156 74.003906 Z M 8.785156 0.996094 " clip-rule="nonzero"/></clipPath><clipPath id="09d3ed9b0f"><rect x="0" width="187" y="0" height="75"/></clipPath><clipPath id="7e6a0664da"><path d="M 0.617188 0.34375 L 255 0.34375 L 255 173.238281 L 0.617188 173.238281 Z M 0.617188 0.34375 " clip-rule="nonzero"/></clipPath><clipPath id="085b307118"><rect x="0" width="360" y="0" height="174"/></clipPath><clipPath id="6413ee653c"><rect x="0" width="360" y="0" height="174"/></clipPath></defs><g transform="matrix(1, 0, 0, 1, 94, 26)"><g clip-path="url(#6413ee653c)"><g clip-path="url(#75036f8927)"><g><g clip-path="url(#085b307118)"><g clip-path="url(#ad2b60a768)"><g transform="matrix(1, 0, 0, 1, 173, 99)"><g clip-path="url(#09d3ed9b0f)"><g clip-path="url(#9a6e54dad4)"><path fill="#ffffff" d="M 87.121094 74.003906 C 102.9375 37.796875 74.09375 0.996094 0.578125 0.996094 C 3.824219 0.996094 7.070312 0.996094 10.316406 0.996094 C 113.578125 0.996094 172.175781 37.796875 186.109375 74.003906 L 87.121094 74.003906 " fill-opacity="1" fill-rule="nonzero"/></g><path fill="#222f41" d="M 132.683594 60.46875 C 133.542969 63.808594 134.011719 67.1875 134.09375 70.566406 C 135.746094 70.566406 137.398438 70.566406 139.054688 70.566406 C 138.78125 67.1875 138.117188 63.808594 137.066406 60.46875 C 135.605469 60.46875 134.144531 60.46875 132.683594 60.46875 " fill-opacity="1" fill-rule="nonzero"/><path fill="#222f41" d="M 127.117188 47.320312 C 129.023438 50.511719 130.542969 53.777344 131.671875 57.089844 C 133.070312 57.089844 134.46875 57.089844 135.867188 57.089844 C 134.5625 53.777344 132.867188 50.511719 130.78125 47.320312 C 129.558594 47.320312 128.335938 47.320312 127.117188 47.320312 " fill-opacity="1" fill-rule="nonzero"/><path fill="#222f41" d="M 117.324219 34.992188 C 120.285156 37.921875 122.855469 40.972656 125.039062 44.105469 C 126.203125 44.105469 127.367188 44.105469 128.53125 44.105469 C 126.1875 40.972656 123.457031 37.921875 120.339844 34.992188 C 119.335938 34.992188 118.332031 34.992188 117.324219 34.992188 " fill-opacity="1" fill-rule="nonzero"/><path fill="#222f41" d="M 103.320312 23.921875 C 107.328125 26.484375 110.949219 29.207031 114.179688 32.054688 C 115.132812 32.054688 116.085938 32.054688 117.039062 32.054688 C 113.660156 29.207031 109.898438 26.484375 105.742188 23.921875 C 104.933594 23.921875 104.128906 23.921875 103.320312 23.921875 " fill-opacity="1" fill-rule="nonzero"/><path fill="#222f41" d="M 85.09375 14.550781 C 90.152344 16.636719 94.824219 18.917969 99.105469 21.371094 C 99.867188 21.371094 100.628906 21.371094 101.390625 21.371094 C 96.976562 18.917969 92.179688 16.636719 86.988281 14.550781 C 86.355469 14.550781 85.722656 14.550781 85.09375 14.550781 " fill-opacity="1" fill-rule="nonzero"/><path fill="#222f41" d="M 62.648438 7.3125 C 68.757812 8.8125 74.480469 10.550781 79.8125 12.5 C 80.402344 12.5 80.996094 12.5 81.585938 12.5 C 76.140625 10.550781 70.304688 8.8125 64.082031 7.3125 C 63.601562 7.3125 63.125 7.3125 62.648438 7.3125 " fill-opacity="1" fill-rule="nonzero"/><path fill="#222f41" d="M 35.980469 2.648438 C 43.140625 3.453125 49.914062 4.539062 56.300781 5.871094 C 56.742188 5.871094 57.183594 5.871094 57.628906 5.871094 C 51.144531 4.539062 44.277344 3.453125 37.015625 2.648438 C 36.671875 2.648438 36.324219 2.648438 35.980469 2.648438 " fill-opacity="1" fill-rule="nonzero"/><g clip-path="url(#135cb3279d)"><path fill="#222f41" d="M 5.09375 0.996094 C 13.308594 0.996094 21.128906 1.320312 28.5625 1.929688 C 28.878906 1.929688 29.195312 1.929688 29.507812 1.929688 C 21.996094 1.320312 14.089844 0.996094 5.796875 0.996094 C 5.5625 0.996094 5.328125 0.996094 5.09375 0.996094 " fill-opacity="1" fill-rule="nonzero"/></g><g clip-path="url(#ac06ee6eea)"><path fill="#222f41" d="M 94.714844 74.003906 C 108.25 37.796875 77.121094 0.996094 1.324219 0.996094 C 1.5625 0.996094 1.792969 0.996094 2.027344 0.996094 C 79.972656 0.996094 113.25 37.796875 101.863281 74.003906 L 94.714844 74.003906 " fill-opacity="1" fill-rule="nonzero"/></g><g clip-path="url(#04e9628abc)"><path fill="#222f41" d="M 171.273438 74.003906 C 161.800781 37.796875 107.660156 0.996094 8.855469 0.996094 C 9.089844 0.996094 9.324219 0.996094 9.558594 0.996094 C 110.511719 0.996094 166.800781 37.796875 178.421875 74.003906 L 171.273438 74.003906 " fill-opacity="1" fill-rule="nonzero"/></g></g></g></g></g></g></g></g></g></g></svg>

